<svg width="18" height="20" viewBox="0 0 18 20" fill="none" xmlns="http://www.w3.org/2000/svg">
<path d="M5.83783 6.62654H11.3108V7.83136H5.83783V6.62654Z" fill="currentColor"/>
<path d="M5.83783 9.03615H11.3108V10.241H5.83783V9.03615Z" fill="currentColor"/>
<path d="M5.83783 11.4458H11.3108V12.6506H5.83783V11.4458Z" fill="currentColor"/>
<path d="M5.83783 13.8554H11.3108V15.0602H5.83783V13.8554Z" fill="currentColor"/>
<path d="M3.40543 4.21689H4.62164V5.42171H3.40543V4.21689Z" fill="currentColor"/>
<path d="M3.40543 6.62654H4.62164V7.83136H3.40543V6.62654Z" fill="currentColor"/>
<path d="M3.40543 9.03615H4.62164V10.241H3.40543V9.03615Z" fill="currentColor"/>
<path d="M3.40543 11.4458H4.62164V12.6506H3.40543V11.4458Z" fill="currentColor"/>
<path d="M3.40543 13.8554H4.62164V15.0602H3.40543V13.8554Z" fill="currentColor"/>
<path d="M5.83783 4.21689V5.42171H11.1041C10.8647 5.04869 10.6824 4.6427 10.5628 4.21689H5.83783Z" fill="currentColor"/>
<path d="M14.3642 7.2584V18.7737H1.30583V1.60501H10.9559C11.0822 1.17193 11.2758 0.758714 11.5305 0.378677H1.30583C0.959505 0.378677 0.627361 0.50788 0.38247 0.737862C0.137578 0.967844 0 1.27977 0 1.60501V18.7737C0 19.0989 0.137578 19.4108 0.38247 19.6408C0.627361 19.8708 0.959505 20 1.30583 20H14.3642C14.7105 20 15.0426 19.8708 15.2875 19.6408C15.5324 19.4108 15.67 19.0989 15.67 18.7737V7.43009C15.2285 7.42849 14.7892 7.37073 14.3642 7.2584V7.2584Z" fill="currentColor"/>
<path d="M14.9595 6.02409C16.6387 6.02409 18 4.67555 18 3.01204C18 1.34854 16.6387 0 14.9595 0C13.2802 0 11.9189 1.34854 11.9189 3.01204C11.9189 4.67555 13.2802 6.02409 14.9595 6.02409Z" fill="currentColor"/>
</svg>
