<svg width="20" height="20" viewBox="0 0 20 20" fill="none" xmlns="http://www.w3.org/2000/svg">
<path d="M6.83783 6.62654H12.3108V7.83136H6.83783V6.62654Z" fill="currentColor"/>
<path d="M6.83783 9.03615H12.3108V10.241H6.83783V9.03615Z" fill="currentColor"/>
<path d="M6.83783 11.4458H12.3108V12.6506H6.83783V11.4458Z" fill="currentColor"/>
<path d="M6.83783 13.8554H12.3108V15.0602H6.83783V13.8554Z" fill="currentColor"/>
<path d="M4.40543 4.21689H5.62164V5.42171H4.40543V4.21689Z" fill="currentColor"/>
<path d="M4.40543 6.62654H5.62164V7.83136H4.40543V6.62654Z" fill="currentColor"/>
<path d="M4.40543 9.03615H5.62164V10.241H4.40543V9.03615Z" fill="currentColor"/>
<path d="M4.40543 11.4458H5.62164V12.6506H4.40543V11.4458Z" fill="currentColor"/>
<path d="M4.40543 13.8554H5.62164V15.0602H4.40543V13.8554Z" fill="currentColor"/>
<path d="M6.83783 4.21689V5.42171H12.1041C11.8647 5.04869 11.6824 4.6427 11.5628 4.21689H6.83783Z" fill="currentColor"/>
<path d="M15.3642 7.2584V18.7737H2.30583V1.60501H11.9559C12.0822 1.17193 12.2758 0.758714 12.5305 0.378677H2.30583C1.9595 0.378677 1.62736 0.50788 1.38247 0.737862C1.13758 0.967844 1 1.27977 1 1.60501V18.7737C1 19.0989 1.13758 19.4108 1.38247 19.6408C1.62736 19.8708 1.9595 20 2.30583 20H15.3642C15.7105 20 16.0426 19.8708 16.2875 19.6408C16.5324 19.4108 16.67 19.0989 16.67 18.7737V7.43009C16.2285 7.42849 15.7892 7.37073 15.3642 7.2584V7.2584Z" fill="currentColor"/>
<path d="M15.9595 6.02409C17.6387 6.02409 19 4.67555 19 3.01204C19 1.34854 17.6387 0 15.9595 0C14.2802 0 12.9189 1.34854 12.9189 3.01204C12.9189 4.67555 14.2802 6.02409 15.9595 6.02409Z" fill="currentColor"/>
</svg>
