<svg viewBox="0 0 25 17" fill="none" xmlns="http://www.w3.org/2000/svg">
<path fill-rule="evenodd" clip-rule="evenodd" d="M19.4329 1.05567C19.7584 1.3811 19.7584 1.90874 19.4329 2.23417L14.1244 7.54268C13.9617 7.7081 13.9219 7.87785 13.9503 8.06843C13.9834 8.2906 14.1188 8.55793 14.3506 8.78968C14.5823 9.02143 14.8496 9.15685 15.0718 9.18993C15.2644 9.21868 15.4358 9.17768 15.6028 9.0106L19.4329 5.18046C19.5938 5.01963 19.8039 4.93828 20.0148 4.93642C20.2305 4.93447 20.4469 5.01582 20.6115 5.18046C20.937 5.50589 20.937 6.03353 20.6115 6.35897L16.7813 10.1891C16.6143 10.3562 16.5733 10.5274 16.602 10.7201C16.6352 10.9423 16.7706 11.2095 17.0023 11.4413C17.2341 11.673 17.5014 11.8085 17.7236 11.8416C17.9134 11.8698 18.0825 11.8304 18.2473 11.6694L23.5578 6.35897C23.8832 6.03352 24.4108 6.03352 24.7363 6.35897C25.0617 6.6844 25.0617 7.21204 24.7363 7.53751L19.44 12.8337L19.433 12.8408L19.4208 12.8529L18.2544 14.0193C18.1583 14.1154 18.0402 14.1865 17.9103 14.2265L10.2499 16.5835C9.95491 16.6743 9.63388 16.5946 9.41561 16.3763C9.19734 16.158 9.1176 15.837 9.20838 15.542L11.5654 7.88168C11.6054 7.75177 11.6765 7.6336 11.7726 7.53751L12.9423 6.36782C12.9452 6.36487 12.9482 6.36192 12.9511 6.35897C12.9528 6.35727 12.9545 6.35559 12.9562 6.35392L18.2544 1.05567C18.5798 0.730224 19.1075 0.730224 19.4329 1.05567ZM12.8024 9.52868L11.2643 14.5277L16.2633 12.9894C16.1043 12.8778 15.957 12.753 15.8238 12.6198C15.3927 12.1887 15.0494 11.6088 14.9536 10.9656C14.948 10.928 14.9433 10.8903 14.9394 10.8526C14.9016 10.8488 14.8639 10.844 14.8263 10.8384C14.183 10.7426 13.6032 10.3993 13.1721 9.96818C13.0389 9.83502 12.9141 9.68768 12.8024 9.52868Z" fill="CurrentColor"/>
<path d="M5 4V11.3333M9 7.66667L1 7.66667" stroke="currentColor" stroke-linecap="round"/>
</svg>
