<svg width="21" height="20" viewBox="0 0 21 20" fill="none" xmlns="http://www.w3.org/2000/svg">
<path d="M19.0429 20H1.26513C0.970448 20 0.687833 19.8946 0.479459 19.7071C0.271085 19.5196 0.154022 19.2652 0.154022 19V1C0.154022 0.734783 0.271085 0.48043 0.479459 0.292893C0.687833 0.105357 0.970448 0 1.26513 0H19.0429C19.3376 0 19.6202 0.105357 19.8286 0.292893C20.037 0.48043 20.154 0.734783 20.154 1V19C20.154 19.2652 20.037 19.5196 19.8286 19.7071C19.6202 19.8946 19.3376 20 19.0429 20ZM18.5429 19C18.8191 19 19.0429 18.7761 19.0429 18.5V1.5C19.0429 1.22386 18.8191 1 18.5429 1H1.76513C1.48899 1 1.26513 1.22386 1.26513 1.5V18.5C1.26513 18.7761 1.48899 19 1.76513 19H18.5429ZM4.59847 4.5C4.59847 4.22386 4.82232 4 5.09847 4H8.54291C8.81905 4 9.04291 4.22386 9.04291 4.5V7.5C9.04291 7.77614 8.81905 8 8.54291 8H5.09847C4.82232 8 4.59847 7.77614 4.59847 7.5V4.5ZM4.59847 10.5C4.59847 10.2239 4.82232 10 5.09847 10H15.2096C15.4857 10 15.7096 10.2239 15.7096 10.5V11.5C15.7096 11.7761 15.4857 12 15.2096 12H5.09847C4.82232 12 4.59847 11.7761 4.59847 11.5V10.5ZM4.59847 14.5C4.59847 14.2239 4.82232 14 5.09847 14H15.2096C15.4857 14 15.7096 14.2239 15.7096 14.5V15.5C15.7096 15.7761 15.4857 16 15.2096 16H5.09847C4.82232 16 4.59847 15.7761 4.59847 15.5V14.5ZM11.2651 5.5C11.2651 5.22386 11.489 5 11.7651 5H15.2096C15.4857 5 15.7096 5.22386 15.7096 5.5V6.5C15.7096 6.77614 15.4857 7 15.2096 7H11.7651C11.489 7 11.2651 6.77614 11.2651 6.5V5.5Z" fill="currentColor"/>
</svg>
