<svg width="18" height="17" viewBox="0 0 18 17" fill="none" xmlns="http://www.w3.org/2000/svg">
<path d="M17.0155 3H15.1874V4.07692H16.8749V15.9231H1.12513V4.07692H2.8126V3H0.984504C0.853014 3.0021 0.723246 3.02898 0.60261 3.0791C0.481974 3.12923 0.372835 3.20161 0.281425 3.29211C0.190015 3.38262 0.118126 3.48947 0.0698629 3.60658C0.0216003 3.72368 -0.0020902 3.84874 0.000144589 3.97462V16.0254C-0.0020902 16.1513 0.0216003 16.2763 0.0698629 16.3934C0.118126 16.5105 0.190015 16.6174 0.281425 16.7079C0.372835 16.7984 0.481974 16.8708 0.60261 16.9209C0.723246 16.971 0.853014 16.9979 0.984504 17H17.0155C17.147 16.9979 17.2768 16.971 17.3974 16.9209C17.518 16.8708 17.6272 16.7984 17.7186 16.7079C17.81 16.6174 17.8819 16.5105 17.9301 16.3934C17.9784 16.2763 18.0021 16.1513 17.9999 16.0254V3.97462C18.0021 3.84874 17.9784 3.72368 17.9301 3.60658C17.8819 3.48947 17.81 3.38262 17.7186 3.29211C17.6272 3.20161 17.518 3.12923 17.3974 3.0791C17.2768 3.02898 17.147 3.0021 17.0155 3V3Z" fill="currentColor"/>
<path d="M3.44444 7.14496H4.55555V8.25607H3.44444V7.14496Z" fill="currentColor"/>
<path d="M6.77777 7.14496H7.88888V8.25607H6.77777V7.14496Z" fill="currentColor"/>
<path d="M10.1111 7.14496H11.2222V8.25607H10.1111V7.14496Z" fill="currentColor"/>
<path d="M13.4444 7.14496H14.5556V8.25607H13.4444V7.14496Z" fill="currentColor"/>
<path d="M3.44444 9.92274H4.55555V11.0339H3.44444V9.92274Z" fill="currentColor"/>
<path d="M6.77777 9.92274H7.88888V11.0339H6.77777V9.92274Z" fill="currentColor"/>
<path d="M10.1111 9.92274H11.2222V11.0339H10.1111V9.92274Z" fill="currentColor"/>
<path d="M13.4444 9.92274H14.5556V11.0339H13.4444V9.92274Z" fill="currentColor"/>
<path d="M3.44444 12.7005H4.55555V13.8116H3.44444V12.7005Z" fill="currentColor"/>
<path d="M6.77777 12.7005H7.88888V13.8116H6.77777V12.7005Z" fill="currentColor"/>
<path d="M10.1111 12.7005H11.2222V13.8116H10.1111V12.7005Z" fill="currentColor"/>
<path d="M13.4444 12.7005H14.5556V13.8116H13.4444V12.7005Z" fill="currentColor"/>
<path d="M4.55556 4.92275C4.7029 4.92275 4.84421 4.86421 4.94839 4.76003C5.05258 4.65584 5.11111 4.51453 5.11111 4.36719V1.03386C5.11111 0.886515 5.05258 0.745207 4.94839 0.64102C4.84421 0.536834 4.7029 0.478302 4.55556 0.478302C4.40821 0.478302 4.26691 0.536834 4.16272 0.64102C4.05853 0.745207 4 0.886515 4 1.03386V4.36719C4 4.51453 4.05853 4.65584 4.16272 4.76003C4.26691 4.86421 4.40821 4.92275 4.55556 4.92275Z" fill="currentColor"/>
<path d="M13.4444 4.92275C13.5918 4.92275 13.7331 4.86421 13.8373 4.76003C13.9415 4.65584 14 4.51453 14 4.36719V1.03386C14 0.886515 13.9415 0.745207 13.8373 0.64102C13.7331 0.536834 13.5918 0.478302 13.4444 0.478302C13.2971 0.478302 13.1558 0.536834 13.0516 0.64102C12.9474 0.745207 12.8889 0.886515 12.8889 1.03386V4.36719C12.8889 4.51453 12.9474 4.65584 13.0516 4.76003C13.1558 4.86421 13.2971 4.92275 13.4444 4.92275Z" fill="currentColor"/>
<path d="M6.22223 12.7005H11.7778V13.8116H6.22223V12.7005Z" fill="currentColor"/>
<path d="M6 3H11.5556V4.11111H6V3Z" fill="currentColor"/>
</svg>
