<svg width="18" height="13" viewBox="0 0 18 13" fill="none" xmlns="http://www.w3.org/2000/svg">
<path d="M17.4023 5.86328C15.5508 1.96289 12.7519 0 8.99999 0C5.24609 0 2.44921 1.96289 0.597647 5.86523C0.52338 6.02249 0.484863 6.19425 0.484863 6.36816C0.484863 6.54208 0.52338 6.71383 0.597647 6.87109C2.44921 10.7715 5.24804 12.7344 8.99999 12.7344C12.7539 12.7344 15.5508 10.7715 17.4023 6.86914C17.5527 6.55273 17.5527 6.18555 17.4023 5.86328ZM8.99999 11.3281C5.8496 11.3281 3.54296 9.73047 1.91601 6.36719C3.54296 3.00391 5.8496 1.40625 8.99999 1.40625C12.1504 1.40625 14.457 3.00391 16.084 6.36719C14.459 9.73047 12.1523 11.3281 8.99999 11.3281ZM8.92187 2.92969C7.02343 2.92969 5.48437 4.46875 5.48437 6.36719C5.48437 8.26562 7.02343 9.80469 8.92187 9.80469C10.8203 9.80469 12.3594 8.26562 12.3594 6.36719C12.3594 4.46875 10.8203 2.92969 8.92187 2.92969ZM8.92187 8.55469C7.71288 8.55469 6.73437 7.57617 6.73437 6.36719C6.73437 5.1582 7.71288 4.17969 8.92187 4.17969C10.1309 4.17969 11.1094 5.1582 11.1094 6.36719C11.1094 7.57617 10.1309 8.55469 8.92187 8.55469Z" fill="currentColor"/>
</svg>
