<svg width="21" height="20" viewBox="0 0 21 20" fill="none" xmlns="http://www.w3.org/2000/svg">
<path d="M10.5 20C11.6741 20 12.625 19.0821 12.625 17.9487H8.375C8.375 19.0821 9.32594 20 10.5 20ZM16.875 13.8462V8.71795C16.875 5.5641 15.1378 2.93333 12.0938 2.2359V1.53846C12.0938 0.68718 11.3819 0 10.5 0C9.61813 0 8.90625 0.68718 8.90625 1.53846V2.2359C5.86219 2.93333 4.125 5.5641 4.125 8.71795V13.8462L2 15.8974V16.9231H19V15.8974L16.875 13.8462ZM14.75 14.8718H6.25V8.71795C6.25 6.16923 7.85969 4.10256 10.5 4.10256C13.1403 4.10256 14.75 6.16923 14.75 8.71795V14.8718Z" fill="currentColor"/>
</svg>
