<svg viewBox="0 0 18 18" fill="none" xmlns="http://www.w3.org/2000/svg">
<path d="M1 2.28C1 1.83196 1 1.60794 1.08719 1.43681C1.16389 1.28628 1.28628 1.16389 1.43681 1.08719C1.60794 1 1.83196 1 2.28 1H6.12C6.56804 1 6.79206 1 6.96319 1.08719C7.11372 1.16389 7.23611 1.28628 7.31281 1.43681C7.4 1.60794 7.4 1.83196 7.4 2.28V6.12C7.4 6.56804 7.4 6.79206 7.31281 6.96319C7.23611 7.11372 7.11372 7.23611 6.96319 7.31281C6.79206 7.4 6.56804 7.4 6.12 7.4H2.28C1.83196 7.4 1.60794 7.4 1.43681 7.31281C1.28628 7.23611 1.16389 7.11372 1.08719 6.96319C1 6.79206 1 6.56804 1 6.12V2.28Z" stroke="currentColor" stroke-width="1.7"/>
<path d="M1 11.88C1 11.432 1 11.2079 1.08719 11.0368C1.16389 10.8863 1.28628 10.7639 1.43681 10.6872C1.60794 10.6 1.83196 10.6 2.28 10.6H6.12C6.56804 10.6 6.79206 10.6 6.96319 10.6872C7.11372 10.7639 7.23611 10.8863 7.31281 11.0368C7.4 11.2079 7.4 11.432 7.4 11.88V15.72C7.4 16.168 7.4 16.3921 7.31281 16.5632C7.23611 16.7137 7.11372 16.8361 6.96319 16.9128C6.79206 17 6.56804 17 6.12 17H2.28C1.83196 17 1.60794 17 1.43681 16.9128C1.28628 16.8361 1.16389 16.7137 1.08719 16.5632C1 16.3921 1 16.168 1 15.72V11.88Z" stroke="currentColor" stroke-width="1.7"/>
<path d="M10.6 2.28C10.6 1.83196 10.6 1.60794 10.6872 1.43681C10.7639 1.28628 10.8863 1.16389 11.0368 1.08719C11.2079 1 11.432 1 11.88 1H15.72C16.168 1 16.3921 1 16.5632 1.08719C16.7137 1.16389 16.8361 1.28628 16.9128 1.43681C17 1.60794 17 1.83196 17 2.28V6.12C17 6.56804 17 6.79206 16.9128 6.96319C16.8361 7.11372 16.7137 7.23611 16.5632 7.31281C16.3921 7.4 16.168 7.4 15.72 7.4H11.88C11.432 7.4 11.2079 7.4 11.0368 7.31281C10.8863 7.23611 10.7639 7.11372 10.6872 6.96319C10.6 6.79206 10.6 6.56804 10.6 6.12V2.28Z" stroke="currentColor" stroke-width="1.7"/>
<path d="M10.6 11.88C10.6 11.432 10.6 11.2079 10.6872 11.0368C10.7639 10.8863 10.8863 10.7639 11.0368 10.6872C11.2079 10.6 11.432 10.6 11.88 10.6H15.72C16.168 10.6 16.3921 10.6 16.5632 10.6872C16.7137 10.7639 16.8361 10.8863 16.9128 11.0368C17 11.2079 17 11.432 17 11.88V15.72C17 16.168 17 16.3921 16.9128 16.5632C16.8361 16.7137 16.7137 16.8361 16.5632 16.9128C16.3921 17 16.168 17 15.72 17H11.88C11.432 17 11.2079 17 11.0368 16.9128C10.8863 16.8361 10.7639 16.7137 10.6872 16.5632C10.6 16.3921 10.6 16.168 10.6 15.72V11.88Z" stroke="currentColor" stroke-width="1.7"/>
</svg>
