<svg width="20" height="20" viewBox="0 0 20 20" fill="none" xmlns="http://www.w3.org/2000/svg">
<path d="M12.2594 8.27586H17.1852V9.65517H12.2594V8.27586ZM12.2594 4.82759H20V6.2069H12.2594V4.82759ZM12.2594 1.37931H20V2.75862H12.2594V1.37931ZM6.62988 20H3.81512C3.4422 19.9989 3.08487 19.8532 2.82118 19.5948C2.55748 19.3364 2.40885 18.9862 2.40774 18.6207V13.7931C2.03482 13.792 1.67749 13.6463 1.4138 13.3879C1.1501 13.1295 1.00147 12.7793 1.00035 12.4138V8.27586C0.995199 8.00277 1.04628 7.73147 1.15055 7.47816C1.25481 7.22486 1.41012 6.99476 1.60719 6.80163C1.80426 6.60849 2.03904 6.45628 2.29749 6.35409C2.55595 6.25191 2.83278 6.20184 3.11143 6.2069H7.33357C7.61222 6.20184 7.88905 6.25191 8.1475 6.35409C8.40596 6.45628 8.64074 6.60849 8.83781 6.80163C9.03488 6.99476 9.19018 7.22486 9.29445 7.47816C9.39872 7.73147 9.4498 8.00277 9.44464 8.27586V12.4138C9.44353 12.7793 9.29489 13.1295 9.0312 13.3879C8.76751 13.6463 8.41018 13.792 8.03726 13.7931V18.6207C8.03615 18.9862 7.88751 19.3364 7.62382 19.5948C7.36012 19.8532 7.0028 19.9989 6.62988 20V20ZM3.11143 7.58621C3.01754 7.58068 2.92353 7.59473 2.8356 7.62743C2.74767 7.66013 2.66781 7.71074 2.60131 7.77592C2.5348 7.8411 2.48316 7.91936 2.4498 8.00554C2.41643 8.09172 2.40209 8.18385 2.40774 8.27586V12.4138H3.81512V18.6207H6.62988V12.4138H8.03726V8.27586C8.0429 8.18385 8.02857 8.09172 7.9952 8.00554C7.96183 7.91936 7.91019 7.8411 7.84369 7.77592C7.77718 7.71074 7.69733 7.66013 7.6094 7.62743C7.52146 7.59473 7.42745 7.58068 7.33357 7.58621H3.11143ZM5.2225 5.51724C4.66579 5.51724 4.12159 5.35545 3.6587 5.05233C3.19581 4.74921 2.83504 4.31837 2.622 3.8143C2.40895 3.31023 2.35321 2.75556 2.46182 2.22044C2.57043 1.68532 2.83851 1.19378 3.23216 0.807983C3.62581 0.422183 4.12736 0.159449 4.67337 0.0530074C5.21938 -0.0534346 5.78533 0.00119526 6.29966 0.209989C6.81399 0.418782 7.2536 0.772361 7.56289 1.22601C7.87218 1.67967 8.03726 2.21302 8.03726 2.75862C8.03503 3.48958 7.73776 4.18998 7.21038 4.70685C6.68299 5.22372 5.96833 5.51506 5.2225 5.51724V5.51724ZM5.2225 1.37931C4.94414 1.37931 4.67204 1.46021 4.4406 1.61177C4.20916 1.76333 4.02877 1.97875 3.92225 2.23078C3.81573 2.48282 3.78786 2.76015 3.84216 3.02771C3.89646 3.29527 4.0305 3.54104 4.22733 3.73394C4.42416 3.92684 4.67493 4.05821 4.94793 4.11143C5.22094 4.16465 5.50391 4.13734 5.76108 4.03294C6.01825 3.92854 6.23805 3.75175 6.39269 3.52493C6.54734 3.2981 6.62988 3.03142 6.62988 2.75862C6.62877 2.39314 6.48013 2.04294 6.21644 1.78451C5.95274 1.52607 5.59542 1.3804 5.2225 1.37931V1.37931Z" fill="currentColor"/>
</svg>
